<?xml version="1.0" encoding="UTF-8"?>
<svg xmlns="http://www.w3.org/2000/svg" xmlns:xlink="http://www.w3.org/1999/xlink" width="500px" height="219px" viewBox="0 0 500 219" version="1.1">
<g id="surface1">
<path style=" stroke:none;fill-rule:nonzero;fill:rgb(0%,0%,0%);fill-opacity:1;" d="M 141.863281 195.027344 C 141.3125 195.25 140.675781 197.042969 138.3125 196.488281 C 133.28125 195.304688 132.015625 187.050781 130.332031 186.210938 C 129.363281 187.398438 128.78125 188.5 127.09375 187.753906 C 125.628906 187.105469 124.523438 186.136719 123.855469 184.644531 C 122.585938 181.8125 120.703125 179.269531 119.851562 176.238281 C 119.820312 176.125 119.71875 176.03125 119.574219 175.816406 C 119.066406 176.539062 118.789062 177.332031 118.261719 177.96875 C 117.253906 179.1875 116.964844 179.128906 115.6875 178.316406 C 112.984375 176.59375 112.3125 173.890625 110.585938 168.453125 C 110.496094 168.167969 110.386719 167.863281 110.40625 167.578125 C 110.535156 165.800781 109.171875 164.988281 108.113281 163.980469 C 107.835938 163.714844 107.601562 163.894531 107.316406 164.027344 C 105.523438 164.867188 104.023438 164.550781 102.777344 163.058594 C 101.796875 161.878906 100.703125 160.796875 100 159.394531 C 99.339844 158.070312 98.453125 159.628906 96.679688 161.304688 C 95.40625 162.511719 93.722656 163.128906 92.382812 164.238281 C 90.578125 165.734375 87.558594 166.03125 85.855469 168.714844 C 79.738281 178.371094 81.429688 175.238281 79.65625 179.707031 C 78.585938 182.394531 78.28125 180.960938 75.847656 186.335938 C 75.136719 187.90625 70.386719 196.476562 70.328125 196.574219 C 68.878906 199.1875 67.363281 200.878906 64.566406 199.792969 C 63.820312 199.503906 62.449219 199.570312 62.058594 199.375 C 60.890625 198.777344 59.738281 199.121094 58.578125 199.34375 C 58.414062 199.375 58.195312 199.371094 58.09375 199.476562 C 56.003906 201.5625 53.644531 198.453125 51.128906 201.058594 C 50.1875 202.035156 48.882812 202.496094 47.515625 202.425781 C 46.992188 202.402344 46.449219 202.875 45.859375 202.363281 C 46.769531 201.523438 47.105469 200.585938 46.90625 199.304688 C 46.703125 198.011719 46.75 196.691406 46.410156 195.386719 C 46.167969 194.460938 46.191406 193.445312 46.21875 192.472656 C 46.308594 189.453125 45.75 182.878906 46.902344 180.296875 C 47.191406 179.648438 47.191406 178.875 47.414062 178.191406 C 47.589844 177.65625 47.421875 177.386719 46.960938 177.1875 C 46.140625 176.832031 45.011719 175.933594 45.304688 175.320312 C 45.546875 174.816406 46.007812 175.140625 46.964844 175.117188 C 48.484375 175.085938 46.917969 173.601562 48.960938 172.890625 C 50.726562 172.277344 50.148438 170.710938 52.363281 168.730469 C 54.074219 167.203125 55.613281 165.480469 57.75 164.460938 C 58.445312 164.128906 58.964844 163.398438 59.53125 162.820312 C 65.109375 157.136719 63.902344 157.976562 67.144531 155.851562 C 70.765625 153.484375 75.34375 150.667969 83.390625 151.148438 C 85.472656 151.273438 85.480469 151.34375 85.613281 151.117188 C 85.929688 150.585938 84.828125 149.988281 84.394531 149.941406 C 81.351562 149.613281 82.648438 148.113281 79.882812 147.554688 C 78.625 147.300781 77.890625 146.523438 77.523438 145.320312 C 77.390625 144.878906 75.523438 143.703125 75.074219 143.730469 C 73.914062 143.808594 72.15625 146.75 70.328125 147.902344 C 68.890625 148.8125 67.761719 150.125 66.226562 150.917969 C 65.210938 151.441406 65.140625 151.476562 65.023438 150.359375 C 64.90625 149.214844 63.589844 150.15625 63.386719 150.367188 C 61.3125 152.546875 59.546875 152.425781 58.199219 154.960938 C 57.355469 156.539062 56.464844 158.089844 55.332031 159.488281 C 55.199219 159.652344 55.101562 159.851562 55.019531 160.046875 C 53.011719 165 45.183594 166.03125 38.882812 171.679688 C 37.628906 172.808594 36.15625 173.636719 34.972656 174.859375 C 34.425781 175.425781 27.980469 181.210938 27.234375 181.746094 C 25.574219 182.9375 24.535156 184.75 22.832031 185.859375 C 22.796875 185.882812 22.769531 185.917969 22.742188 185.953125 C 21.304688 188.007812 19.117188 189.261719 17.371094 190.980469 C 10.398438 197.84375 7.792969 203.191406 3.035156 202.203125 C 2.457031 202.082031 1.820312 201.992188 1.863281 201.148438 C 1.898438 200.542969 0.785156 201.105469 0.0429688 200.261719 C 0.742188 199.378906 1.03125 198.289062 1.75 197.40625 C 9.109375 188.386719 8.339844 189.449219 10.785156 184.953125 C 15.710938 175.886719 18.683594 172.761719 22.078125 169.9375 C 22.59375 169.507812 23.105469 169.125 23.257812 168.34375 C 23.394531 167.644531 23.886719 166.984375 22.855469 166.601562 C 22.597656 165.179688 21.710938 165.386719 20.714844 165.730469 C 20.1875 165.910156 19.628906 165.84375 19.070312 165.738281 C 17.804688 165.496094 17.824219 165.417969 17.519531 164.125 C 17.175781 162.667969 17.496094 161.253906 17.578125 159.695312 C 15.179688 160.464844 14.722656 160.828125 13.820312 160.125 C 12.902344 159.410156 13.339844 158.644531 14.164062 155.925781 C 13.445312 156.25 12.796875 156.257812 12.210938 156.746094 C 11.398438 157.421875 9.171875 156.820312 9.777344 155.160156 C 10.398438 153.457031 11.171875 151.859375 12.511719 150.589844 C 12.664062 150.445312 12.832031 150.304688 12.832031 149.960938 C 11.417969 149.460938 9.242188 149.9375 8.667969 150.21875 C 8.085938 150.5 7.757812 150.179688 7.445312 149.847656 C 6.351562 148.703125 12.777344 143.492188 14.753906 142.167969 C 14.855469 142.101562 16.167969 141.539062 15.222656 141.074219 C 14.144531 140.546875 13.113281 139.992188 11.820312 140.5 C 11.101562 140.78125 10.691406 140.476562 10.359375 139.871094 C 9.757812 138.773438 10.285156 138.867188 14.765625 135.988281 C 15.917969 135.246094 16.941406 134.617188 16.144531 134.234375 C 15.6875 134.015625 15.289062 133.683594 14.769531 133.585938 C 14.210938 133.476562 13.738281 133.164062 13.34375 132.769531 C 12.871094 132.296875 12.960938 131.972656 13.546875 131.585938 C 15.175781 130.519531 17.015625 129.957031 18.828125 129.332031 C 21.515625 128.40625 20.679688 128.039062 22.679688 127.757812 C 25.511719 127.355469 31.804688 124.6875 41.152344 122.152344 C 41.441406 122.074219 41.742188 121.996094 42 121.855469 C 42.410156 121.628906 43.007812 121.789062 43.277344 121.351562 C 43.625 120.785156 42.835938 120.324219 43.03125 119.527344 C 43.605469 117.183594 41.597656 118.320312 42.46875 116.332031 C 43.234375 114.582031 41.230469 115.503906 41.792969 114.191406 C 42.226562 113.179688 42.714844 112.179688 42.679688 111.035156 C 42.675781 110.917969 42.738281 110.769531 42.820312 110.683594 C 44.03125 109.394531 44.6875 107.742188 45.578125 106.253906 C 47.386719 103.230469 49.960938 100.828125 51.980469 97.996094 C 52.824219 96.8125 61.5625 85.238281 64.753906 81.222656 C 64.867188 81.078125 64.957031 80.957031 64.859375 80.695312 C 64.117188 80.570312 63.296875 80.945312 62.519531 80.519531 C 62.40625 80.1875 62.699219 80.027344 62.914062 79.859375 C 65.113281 78.140625 75.300781 68.304688 77.515625 64.855469 C 79.210938 62.210938 83.109375 56.984375 88.089844 51.429688 C 97.019531 41.476562 107.257812 39.015625 122.457031 33.992188 C 126.082031 32.796875 134.113281 31.671875 134.601562 31.574219 C 138.121094 30.871094 146.621094 32.035156 152.195312 29.921875 C 153.660156 29.367188 155.253906 29.894531 156.601562 29.070312 C 157.789062 28.351562 167.800781 24.890625 170.09375 23.765625 C 171.339844 23.15625 172.785156 22.96875 174.128906 22.558594 C 186.941406 18.652344 185.257812 19.792969 201.558594 18.136719 C 209.898438 17.289062 211.628906 19.046875 221.867188 18.707031 C 226.734375 18.542969 232.609375 21.039062 236.859375 23.371094 C 241.082031 25.683594 245.980469 26.773438 251.976562 27.882812 C 253.710938 28.203125 255.316406 28.921875 256.960938 29.5 C 266.5625 32.878906 273.894531 33.914062 278.140625 34.855469 C 279.289062 35.109375 280.476562 35.183594 281.691406 35.039062 C 283.835938 34.78125 284.394531 35.332031 289.199219 35.363281 C 293.792969 35.398438 321.789062 28.582031 332.308594 26.890625 C 337.523438 26.050781 340.046875 26.085938 341.542969 25.582031 C 344.421875 24.613281 346.59375 24.90625 350.246094 24.277344 C 359.96875 22.59375 355.242188 23.886719 368.230469 21.976562 C 383.066406 19.796875 377.722656 21.535156 391.558594 17.609375 C 395.050781 16.617188 398.492188 15.453125 401.871094 14.121094 C 404.550781 13.0625 408.316406 12.117188 410.570312 10.273438 C 413.097656 8.34375 416.113281 7.300781 418.8125 5.683594 C 419.28125 5.402344 419.816406 5.214844 420.34375 5.050781 C 425.851562 3.316406 432.164062 -6.601562 454.117188 7.28125 C 454.859375 7.75 455.757812 7.9375 456.5 8.425781 C 460.644531 11.160156 463.027344 11.238281 464.738281 12.417969 C 467.398438 14.253906 472.761719 16.574219 480.78125 17.726562 C 486.375 18.53125 487.320312 18.796875 488.765625 20.511719 C 489.847656 21.792969 489.039062 23.328125 488.660156 23.347656 C 487.464844 23.40625 486.574219 24.238281 485.476562 24.558594 C 484.40625 24.871094 483.328125 25.113281 482.226562 25.238281 C 461.113281 27.683594 475.386719 25.632812 458.847656 30.125 C 458.003906 30.351562 457.074219 30.289062 456.183594 30.328125 C 450.328125 30.605469 451.105469 32.011719 444.117188 32.917969 C 443.300781 33.023438 442.578125 33.40625 441.777344 33.457031 C 438.039062 33.679688 434.339844 34.402344 430.570312 34.269531 C 426.824219 34.140625 422.03125 34.179688 418.3125 34.730469 C 415.113281 35.203125 413.527344 34.707031 411.941406 35.035156 C 409.546875 35.53125 407.15625 35.757812 404.714844 35.347656 C 403.792969 35.195312 402.851562 35.484375 401.949219 35.695312 C 393.785156 37.617188 373.289062 38.125 338.0625 47.976562 C 335.335938 48.804688 329.804688 50.609375 327.378906 51.804688 C 327.46875 51.90625 362.640625 76.660156 368.910156 88.144531 C 370.082031 90.289062 370.011719 90.007812 385.078125 100.28125 C 407.71875 115.71875 433.085938 143.230469 459.605469 148.175781 C 465.199219 149.21875 465.304688 149.035156 472.714844 149.007812 C 481.070312 148.976562 486.8125 145.9375 491.21875 141.515625 C 492.769531 139.957031 493.65625 138.179688 494.132812 136.101562 C 494.230469 135.660156 494.519531 135.261719 494.714844 134.859375 C 496.242188 135.074219 496.53125 136.15625 496.375 137.378906 C 496.105469 139.484375 496.503906 141.011719 494.324219 144.355469 C 489.019531 152.488281 480.65625 156.40625 471.039062 155.683594 C 468.367188 155.484375 465.796875 155.765625 460.941406 154.378906 C 459.585938 153.992188 458.167969 153.953125 456.800781 153.585938 C 456.800781 153.585938 450.636719 151.550781 450.070312 151.386719 C 449.660156 151.261719 449.152344 151.050781 448.785156 151.605469 C 451.402344 153.578125 472.992188 166.898438 490.402344 163.300781 C 496.539062 162.035156 496.796875 160.246094 498.109375 159.1875 C 498.199219 159.113281 498.429688 159.042969 498.445312 159.066406 C 498.878906 159.707031 500.417969 159.664062 499.820312 161.171875 C 499.023438 163.199219 498.105469 165.136719 496.617188 166.785156 C 488.816406 175.445312 478.101562 172.664062 466.992188 169.351562 C 460.464844 167.40625 454.421875 164.027344 448.296875 161.113281 C 447.824219 160.890625 447.363281 160.488281 446.761719 160.746094 C 446.75 161.269531 447.210938 161.375 447.488281 161.582031 C 463.683594 173.582031 476.742188 178.5625 488.859375 181.199219 C 492.496094 181.988281 491.78125 180.960938 495.324219 183.578125 C 494.746094 184.480469 493.789062 184.574219 492.953125 184.722656 C 489.359375 185.359375 487.527344 183.847656 484.890625 185.726562 C 483.695312 186.574219 482.558594 185.691406 478.964844 186.265625 C 477.152344 186.550781 475.445312 185.8125 473.683594 185.574219 C 465.644531 184.492188 457.730469 179.152344 446.945312 173.328125 C 446.257812 172.957031 445.96875 172.675781 445.738281 173.101562 C 445.542969 173.460938 445.816406 173.660156 446.046875 173.847656 C 459.496094 184.6875 472.945312 190.183594 477.460938 190.617188 C 478.304688 190.699219 479.15625 190.804688 479.914062 191.242188 C 479.800781 191.5625 480.332031 191.316406 472.503906 194.226562 C 471.175781 194.71875 465.5 195.699219 461.105469 194.992188 C 457.121094 194.351562 454.730469 193.320312 448.78125 190.996094 C 443.941406 189.105469 444.359375 188.5 442.464844 187.980469 C 438.292969 186.832031 439.070312 183.355469 438.402344 182.289062 C 438.050781 182.664062 437.875 183.261719 437.222656 183.199219 C 436.664062 183.148438 436.144531 183.328125 435.632812 183.605469 C 435.824219 184.238281 443.25 192.523438 444.429688 195.351562 C 444.792969 196.222656 444.613281 196.683594 443.738281 196.941406 C 437.074219 198.910156 435.113281 198.234375 430.117188 196.714844 C 422.792969 194.488281 416.898438 189.582031 415.324219 188.765625 C 414.738281 189.261719 415.160156 189.820312 415.425781 190.945312 C 416.726562 196.398438 406.960938 194.71875 401.914062 192.214844 C 401.34375 191.933594 400.6875 192.085938 400.109375 191.730469 C 398.082031 190.472656 395.824219 189.617188 393.933594 188.097656 C 392.960938 187.320312 392.117188 186.3125 390.8125 185.996094 C 390.65625 185.960938 390.714844 185.578125 390.375 185.589844 C 389.742188 187.15625 389.25 189.132812 386.710938 188.683594 C 386.585938 188.664062 386.457031 188.617188 386.332031 188.628906 C 382.851562 188.929688 379.921875 187.191406 376.847656 186.027344 C 369.53125 183.253906 368.226562 178.871094 367.398438 180.847656 C 366.890625 182.058594 364.855469 183.453125 363.390625 182.757812 C 363.238281 182.6875 363.070312 182.597656 362.90625 182.597656 C 360.105469 182.589844 357.765625 181.164062 355.335938 180.074219 C 352.46875 178.785156 349.148438 176.964844 347.085938 174.613281 C 346.746094 174.226562 346.378906 174.25 346.105469 174.582031 C 344.714844 176.257812 343.222656 175.984375 341.296875 175.378906 C 337.164062 174.085938 333.417969 172.152344 329.964844 169.613281 C 327.332031 167.675781 325.875 164.992188 325.457031 161.746094 C 325.394531 161.257812 325.507812 160.707031 324.929688 160.261719 C 324.140625 165.386719 324.101562 166.898438 322.832031 168.445312 C 321.679688 169.847656 320.828125 170.394531 318.710938 169.65625 C 316.316406 168.828125 313.664062 168.53125 307.863281 162.941406 C 307.359375 162.453125 307.078125 161.820312 306.839844 161.183594 C 306 158.953125 304.90625 160.8125 302.941406 159.082031 C 302.3125 158.53125 301.503906 158.351562 300.808594 157.945312 C 299.925781 157.425781 299.039062 156.921875 298.160156 156.398438 C 296.675781 155.511719 296.890625 158.457031 292.566406 157.730469 C 291.007812 157.46875 289.65625 156.796875 288.289062 156.128906 C 286.917969 155.460938 285.421875 154.984375 284.410156 153.722656 C 284.1875 153.445312 283.871094 153.378906 282.382812 154.042969 C 280.210938 155.007812 279.886719 154.007812 274.007812 152.222656 C 270.078125 151.027344 271.3125 148.507812 269.015625 149.5625 C 267.527344 150.25 266.101562 150.308594 264.636719 149.390625 C 263.417969 148.621094 261.988281 148.222656 260.828125 147.3125 C 259.578125 146.332031 258.707031 148.734375 255.511719 148.261719 C 254.988281 148.183594 254.511719 148.070312 254.070312 147.796875 C 252.582031 146.867188 250.871094 146.386719 249.363281 145.5 C 249.121094 145.359375 248.882812 145.351562 248.625 145.425781 C 247.011719 145.882812 245.429688 145.765625 243.851562 145.234375 C 242.921875 144.925781 241.894531 144.90625 240.992188 144.640625 C 239.902344 144.324219 238.964844 144.175781 237.949219 144.675781 C 236.199219 144.308594 234.519531 145.246094 232.765625 144.960938 C 232.519531 144.921875 232.234375 145.027344 232.023438 144.851562 C 231.121094 144.097656 230.148438 143.421875 229.386719 142.507812 C 228.230469 141.128906 229.316406 140.34375 228.492188 140.140625 C 227.945312 140.003906 227.085938 141 227.820312 141.785156 C 244.003906 159.046875 251.359375 166.507812 263.226562 171.570312 C 264.804688 172.246094 265.046875 171.933594 266.828125 167.8125 C 267.542969 166.148438 269.300781 164.6875 270.234375 166.339844 C 271.421875 168.441406 271.953125 170.320312 269.347656 172.851562 C 268.007812 174.152344 267.085938 172.523438 265.027344 174.710938 C 260.753906 179.253906 260.417969 180.925781 258.039062 180.097656 C 252.804688 178.277344 253.949219 176.542969 251.9375 177.960938 C 250.066406 179.277344 240.007812 169.671875 237.667969 167.582031 C 237.855469 168.277344 238.132812 168.582031 238.414062 168.882812 C 240.945312 171.601562 243.441406 174.355469 246.234375 176.8125 C 249.59375 179.765625 256.976562 184.941406 260.921875 184.519531 C 262.476562 184.351562 261.507812 183.886719 264.207031 181.890625 C 265.390625 181.011719 265.65625 183.835938 264.835938 184.53125 C 264.289062 184.992188 263.753906 185.546875 263.015625 185.675781 C 261.554688 185.929688 260.566406 186.816406 259.828125 188.011719 C 258.261719 190.554688 254.199219 192.660156 253.675781 193.050781 C 249.847656 195.886719 243.183594 192.375 239.453125 189.4375 C 231.238281 182.960938 228.523438 178.089844 226.441406 177.394531 C 225.792969 178.125 240.910156 197.714844 248.542969 197.605469 C 252.527344 197.550781 246.578125 202.925781 245.59375 204.183594 C 245.28125 204.582031 241.082031 207.226562 237.828125 207.527344 C 233.546875 207.925781 228.5625 204.277344 225.257812 201.539062 C 217.605469 195.203125 215.066406 190.191406 211.90625 188.734375 C 211.335938 188.472656 211.035156 187.773438 210.289062 187.714844 C 209.707031 189.152344 217.730469 204.667969 219.519531 208.351562 C 220.203125 209.757812 220.707031 211.28125 220.890625 212.859375 C 221.214844 215.65625 215.789062 219.359375 207.855469 217.34375 C 203.539062 216.25 199.363281 210.375 198.082031 210.492188 C 197.535156 214.300781 198.273438 217.949219 193.734375 218.871094 C 191.671875 219.289062 190.015625 218.636719 188.480469 217.539062 C 175.859375 208.503906 178.398438 205.054688 176.292969 210.269531 C 176.058594 210.84375 175.09375 212.15625 174.183594 212.152344 C 171.933594 212.144531 169.738281 212.015625 167.824219 210.515625 C 165.882812 208.996094 163.6875 207.792969 161.929688 206.054688 C 157.992188 202.160156 158.148438 200.183594 157.074219 202.078125 C 156.269531 203.492188 154.898438 204.808594 153.449219 204.117188 C 152.996094 203.902344 150.027344 204.175781 147.023438 200.855469 C 145.539062 199.214844 143.902344 197.707031 142.59375 195.90625 C 142.375 195.605469 142.234375 195.21875 141.863281 195.027344 Z M 141.863281 195.027344 "/>
</g>
</svg>
